#N canvas 953 0 958 975 12;
#X obj 20 600 soundfiler;
#N canvas 0 0 450 300 (subpatch) 0;
#X array audioData1 25286 float 2 black black;
#X coords 0 1 25286 -1 200 140 1;
#X restore 520 530 graph;
#X obj 140 910 freeverb~;
#X obj 140 710 phasor~;
#X obj 60 750 *~;
#X floatatom 140 640 5 0 1 0 - - -, f 5;
#X obj 40 970 *~;
#X obj 40 1040 dac~;
#X floatatom 170 950 5 0 1 0 - - -, f 5;
#X obj 40 780 tabread4~ audioData1;
#X msg 20 530 read -resize Latido.wav audioData1;
#X msg 220 830 roomsize \$1;
#X floatatom 220 790 5 0 0 0 - - -, f 5;
#X obj 320 630 t f b f;
#X msg 340 680 1;
#X obj 370 730 -;
#X floatatom 380 780 5 0 1 0 - - -, f 5;
#X floatatom 330 780 5 0 0 0 - - -, f 5;
#X obj 320 590 hsl 128 15 0 1 0 0 empty empty empty -2 -8 0 10 #fcfcfc
#000000 #000000 1245 1;
#X msg 330 830 wet \$1;
#X msg 390 830 dry \$1;
#X obj 140 670 hsl 128 15 1 2 0 0 empty empty empty -2 -8 0 10 #fcfcfc
#000000 #000000 0 1;
#X msg 250 20 devices;
#X msg 380 20 close;
#X obj 170 100 print;
#X obj 320 70 comport 0 9600;
#X msg 320 20 open 4;
#X obj 320 130 sel 13 10;
#X obj 320 170 zl group 100;
#X obj 320 210 iem_alisttosym;
#X obj 320 260 fromsymbol;
#X floatatom 320 290 5 0 0 0 - - -, f 5;
#X floatatom 320 380 5 0 0 0 - - -, f 5;
#X floatatom 230 400 5 0 0 0 - - -, f 5;
#X obj 210 370 * 2;
#X obj 320 330 / 51;
#X connect 0 0 5 0;
#X connect 0 0 4 1;
#X connect 2 0 6 0;
#X connect 3 0 4 0;
#X connect 4 0 9 0;
#X connect 6 0 7 0;
#X connect 6 0 7 1;
#X connect 8 0 6 1;
#X connect 9 0 2 0;
#X connect 10 0 0 0;
#X connect 11 0 2 0;
#X connect 12 0 11 0;
#X connect 13 0 17 0;
#X connect 13 1 14 0;
#X connect 13 2 15 1;
#X connect 14 0 15 0;
#X connect 15 0 16 0;
#X connect 16 0 20 0;
#X connect 17 0 19 0;
#X connect 18 0 13 0;
#X connect 19 0 2 0;
#X connect 20 0 2 0;
#X connect 21 0 3 0;
#X connect 22 0 25 0;
#X connect 23 0 25 0;
#X connect 25 0 24 0;
#X connect 25 0 27 0;
#X connect 26 0 25 0;
#X connect 27 0 28 0;
#X connect 27 2 28 0;
#X connect 28 0 29 0;
#X connect 29 0 30 0;
#X connect 30 0 31 0;
#X connect 31 0 35 0;
#X connect 32 0 18 0;
#X connect 32 0 21 0;
#X connect 33 0 21 0;
#X connect 34 0 33 0;
#X connect 35 0 32 0;
#X connect 35 0 34 0;
